<svg width="22" height="23" viewBox="0 0 22 23" fill="none" xmlns="http://www.w3.org/2000/svg">
<path d="M1 11.8L10.6422 16.6211C10.7734 16.6867 10.839 16.7195 10.9078 16.7324C10.9687 16.7438 11.0313 16.7438 11.0922 16.7324C11.161 16.7195 11.2266 16.6867 11.3578 16.6211L21 11.8M1 16.8L10.6422 21.6211C10.7734 21.6867 10.839 21.7195 10.9078 21.7324C10.9687 21.7438 11.0313 21.7438 11.0922 21.7324C11.161 21.7195 11.2266 21.6867 11.3578 21.6211L21 16.8M1 6.79999L10.6422 1.97888C10.7734 1.91329 10.839 1.88049 10.9078 1.86758C10.9687 1.85615 11.0313 1.85615 11.0922 1.86758C11.161 1.88049 11.2266 1.91329 11.3578 1.97888L21 6.79999L11.3578 11.6211C11.2266 11.6867 11.161 11.7195 11.0922 11.7324C11.0313 11.7438 10.9687 11.7438 10.9078 11.7324C10.839 11.7195 10.7734 11.6867 10.6422 11.6211L1 6.79999Z" stroke="#D0D5DD" stroke-width="2" stroke-linecap="round" stroke-linejoin="round"/>
</svg>
